<svg id="Layer_1" enable-background="new 0 0 512 512" height="30" viewBox="0 0 512 512" width="30" xmlns="http://www.w3.org/2000/svg">
    <g><path d="m505.88 100.42-13.12-13.1c-3.95-3.95-9.22-6.12-14.83-6.12s-10.88 2.18-14.83 6.13l-67.94 67.93v-18.19c0-29.96-21.19-54.33-47.24-54.33h-300.7c-26.05 0-47.24 24.37-47.24 54.33v151.29c0 29.96 21.19 54.33 47.24 54.33h49.72c.29 0 .82 0 1.58 1.13.89 1.31 1.16 2.79.83 4.54l-10.78 57.83c-1.57 8.62 1.79 17.11 8.59 21.66 3.01 1.99 6.34 2.96 9.63 2.96 4.86 0 9.64-2.11 13.21-6.16l62.88-70.59c6.79-7.65 14.58-11.37 23.8-11.37h141.22c26.05 0 47.24-24.37 47.24-54.33v-47.53l110.76-110.73c8.16-8.2 8.15-21.51-.02-29.68zm-124.32 131.36c-.04.04-.09.09-.13.13l-30.36 30.36-20.15-20.13 61.73-61.72c.11-.1.22-.21.32-.32l60.06-60.05 20.15 20.13zm-57.48 26.16 11.19 11.18-14.68 3.5zm55.06 30.41c0 21.12-14.01 38.31-31.22 38.31h-141.22c-13.87 0-25.91 5.64-35.77 16.74l-62.9 70.61c-1.01 1.14-1.57.76-1.99.49-1.42-.95-2.12-3.19-1.71-5.43l10.77-57.8c1.09-5.84-.08-11.68-3.33-16.47-3.58-5.25-8.85-8.14-14.83-8.14h-49.72c-17.22 0-31.22-17.18-31.22-38.31v-151.28c0-21.13 14-38.31 31.22-38.31h300.7c17.22 0 31.22 17.19 31.22 38.31v34.2l-65.2 65.19c-1.05 1.05-1.79 2.37-2.13 3.81l-9.81 41.3c-.64 2.71.16 5.55 2.13 7.52 1.52 1.52 3.56 2.34 5.66 2.34.62 0 1.24-.07 1.86-.22l41.27-9.84c1.44-.34 2.76-1.08 3.81-2.13l22.42-22.41v31.52zm115.42-169.56-10.06 10.06-20.15-20.13 10.07-10.07c.93-.93 2.17-1.44 3.51-1.44s2.58.51 3.51 1.44c0 0 0 0 .01.01l13.12 13.09c1.93 1.93 1.92 5.1-.01 7.04zm-365.52 85.71v-62.53c0-4.42 3.58-8.01 8.01-8.01s8.01 3.58 8.01 8.01v54.52h24.11c4.42 0 8.01 3.58 8.01 8.01s-3.58 8.01-8.01 8.01h-32.12c-4.42 0-8.01-3.58-8.01-8.01zm78.93 8.01c21.26 0 38.57-17.3 38.57-38.57v-1.42c0-21.26-17.3-38.57-38.57-38.57s-38.56 17.3-38.56 38.57v1.42c0 21.27 17.3 38.57 38.56 38.57zm-22.55-39.98c0-12.43 10.12-22.55 22.55-22.55s22.55 10.12 22.55 22.55v1.42c0 12.43-10.12 22.55-22.55 22.55s-22.55-10.12-22.55-22.55zm-113.48 39.98h26.33c13.04 0 23.66-10.61 23.66-23.66 0-7.54-3.56-14.26-9.08-18.59 2.33-3.66 3.69-8 3.69-12.65 0-13.04-10.6-23.66-23.63-23.66h-20.97c-4.42 0-8.01 3.58-8.01 8.01v62.53c0 4.44 3.59 8.02 8.01 8.02zm26.33-16.01h-18.32v-15.25h18.33c4.21 0 7.64 3.41 7.64 7.61-.01 4.21-3.43 7.64-7.65 7.64zm-18.32-46.52h12.97c4.2 0 7.61 3.43 7.61 7.64 0 4.2-3.41 7.61-7.61 7.61h-12.97zm174.13 23.97v-1.42c0-21.26 17.3-38.57 38.57-38.57 10.35 0 20.08 4.07 27.4 11.47 3.11 3.14 3.09 8.21-.06 11.33-3.14 3.11-8.21 3.09-11.33-.06-4.29-4.34-9.99-6.73-16.02-6.73-12.43 0-22.55 10.12-22.55 22.55v1.42c0 12.43 10.12 22.55 22.55 22.55 10.14 0 18.74-6.73 21.57-15.96h-14.08c-4.42 0-8.01-3.58-8.01-8.01s3.58-8.01 8.01-8.01h23.07c4.42 0 8.01 3.58 8.01 8.01v1.42c0 21.26-17.3 38.57-38.57 38.57s-38.56-17.3-38.56-38.56zm41.21 68.62c0 4.42-3.58 8.01-8.01 8.01h-215.34c-4.42 0-8.01-3.58-8.01-8.01s3.58-8.01 8.01-8.01h215.35c4.42.01 8 3.59 8 8.01zm-10.51 44.08c0 4.42-3.58 8.01-8.01 8.01h-204.83c-4.42 0-8.01-3.58-8.01-8.01s3.58-8.01 8.01-8.01h204.83c4.42.01 8.01 3.59 8.01 8.01z" fill="#ffffff" opacity="1" data-original="#000000"></path></g>
</svg>