<svg xmlns="http://www.w3.org/2000/svg" version="1.1" xmlns:xlink="http://www.w3.org/1999/xlink" width="24" height="24" x="0" y="0" viewBox="0 0 64 64" style="enable-background:new 0 0 512 512" xml:space="preserve"><g><path d="M58 63H6c-2.8 0-5-2.2-5-5V6c0-2.8 2.2-5 5-5h52c2.8 0 5 2.2 5 5v52c0 2.8-2.2 5-5 5zM6 3C4.3 3 3 4.3 3 6v52c0 1.7 1.3 3 3 3h52c1.7 0 3-1.3 3-3V6c0-1.7-1.3-3-3-3zm46 50h-7.1c-.6 0-1-.4-1-1V38.2c0-3.7-.2-4.9-.4-5.3-.2-.7-.6-1.2-1.1-1.5-.5-.4-1.1-.5-1.8-.5-1 0-1.9.3-2.6.8-.8.6-1.3 1.3-1.6 2.2-.2.7-.5 2.3-.5 5.9V52c0 .6-.4 1-1 1h-8.6c-.6 0-1-.4-1-1V24.4c0-.6.4-1 1-1h7.1c.6 0 1 .4 1 1v1.5c2.3-2.1 5-3.1 8.2-3.1 1.8 0 3.4.3 4.9 1 1.5.6 2.7 1.5 3.5 2.5s1.3 2.2 1.6 3.4.4 2.9.4 5.1V52c0 .6-.4 1-1 1zm-6.1-2H51V34.9c0-2-.1-3.6-.4-4.7-.2-1-.7-1.9-1.3-2.7s-1.5-1.4-2.7-1.9-2.6-.8-4.1-.8c-3.4 0-6.2 1.4-8.4 4.3-.3.3-.7.5-1.1.3-.4-.1-.7-.5-.7-.9v-3.1h-5.1V51h6.6V39.8c0-3.2.2-5.3.6-6.5.4-1.3 1.2-2.4 2.3-3.2s2.4-1.2 3.8-1.2c1.1 0 2.1.3 3 .9.8.6 1.4 1.4 1.8 2.5.2.6.5 1.9.5 6V51zm-26.8 2H12c-.6 0-1-.4-1-1V24.4c0-.6.4-1 1-1h7.1c.6 0 1 .4 1 1V52c0 .6-.4 1-1 1zM13 51h5.1V25.4H13zm2.6-31.1c-2.5 0-4.6-2-4.6-4.4s2.1-4.4 4.6-4.4 4.6 2 4.6 4.4-2.1 4.4-4.6 4.4zm0-6.9c-1.4 0-2.6 1.1-2.6 2.4s1.2 2.4 2.6 2.4 2.6-1.1 2.6-2.4S17 13 15.6 13z" fill="#ffffff" opacity="1" data-original="#000000"></path></g></svg>